<svg width="185" height="82" viewBox="0 0 185 82" fill="none" xmlns="http://www.w3.org/2000/svg">
<mask id="path-1-outside-1_43_2769" maskUnits="userSpaceOnUse" x="0" y="0" width="185" height="82" fill="black">
<rect fill="white" width="185" height="82"/>
<path d="M13.2919 81C10.219 81 7.58984 80.4537 5.40461 79.3611C2.4682 77.8587 1 75.7418 1 73.0102C1 70.0738 2.60478 67.7862 5.81434 66.1472C8.34102 64.8498 11.2433 64.201 14.5211 64.201C15.1357 64.201 15.443 64.3035 15.443 64.5083C15.443 64.7815 15.1357 64.9181 14.5211 64.9181C11.7213 64.9181 9.3312 65.4644 7.35083 66.557C4.75587 67.9227 3.45839 69.869 3.45839 72.3957C3.45839 74.5809 4.44857 76.2881 6.42894 77.5173C8.20444 78.5416 10.1848 79.0538 12.37 79.0538C18.4477 79.0538 24.0474 76.2539 29.169 70.6543C30.8762 68.8105 32.6176 66.5228 34.3931 63.7913C36.1686 61.0598 37.9782 57.8843 39.822 54.265C40.5732 52.6944 41.6317 50.475 42.9974 47.6069C44.4315 44.6705 46.1046 41.0171 48.0166 36.6466C49.6556 32.8907 51.1921 29.5787 52.6261 26.7106C54.0602 23.8425 55.3577 21.35 56.5186 19.233L49.3483 17.6965C48.6654 20.4964 47.8459 23.5694 46.8899 26.9155C45.9338 30.2616 44.7729 33.8468 43.4072 37.6709C44.1583 37.1929 44.8071 36.9539 45.3534 36.9539C45.8314 36.9539 46.0704 37.2612 46.0704 37.8758C46.0704 39.6513 44.0901 42.3146 40.1293 45.8656C38.9684 48.5971 37.6368 51.3286 36.1344 54.0602C34.7004 56.7234 33.0956 59.3525 31.3201 61.9475C26.335 69.391 22.0329 73.1127 18.4136 73.1127C17.1161 73.1127 16.4673 72.7712 16.4673 72.0883C16.4673 71.7469 16.6381 71.5762 16.9795 71.5762C17.1844 71.5762 17.4575 71.6103 17.799 71.6786C18.1404 71.7469 18.3794 71.7811 18.516 71.7811C22.067 71.7811 26.2326 68.1618 31.0128 60.9232C34.2907 56.0064 37.0563 50.7823 39.3099 45.251C38.4904 42.4511 38.0807 40.3 38.0807 38.7977C38.0807 36.5442 38.4904 35.4174 39.3099 35.4174C40.2659 35.4174 41.1195 36.4076 41.8707 38.388C42.8267 36.4076 43.851 33.6761 44.9437 30.1933C46.0363 26.7106 47.1289 22.4426 48.2215 17.3892C37.5685 15.1357 29.408 14.009 23.7401 14.009C12.1993 14.009 6.42894 18.0038 6.42894 25.9936C6.42894 31.2518 9.46778 35.9979 15.5455 40.2318C15.8186 40.4366 15.9552 40.6073 15.9552 40.7439C15.9552 40.9488 15.8186 41.0512 15.5455 41.0512C15.4772 41.0512 15.3064 40.9829 15.0333 40.8464C6.97525 36.271 2.94622 30.7738 2.94622 24.3547C2.94622 19.7793 5.13146 16.4332 9.50192 14.3163C12.8481 12.7456 17.0478 11.9603 22.1012 11.9603C28.1105 11.9603 36.9539 13.0871 48.6312 15.3406C48.8361 13.9748 49.0751 12.5408 49.3483 11.0384C49.6897 9.53606 50.0312 7.99957 50.3726 6.42893C50.5775 6.49723 50.6799 7.21426 50.6799 8.58003C50.6799 10.3555 50.3726 12.6773 49.758 15.5455L57.7478 17.0819C64.1669 6.36065 71.2006 1 78.8489 1C83.4925 1 85.8143 2.94622 85.8143 6.83867C85.8143 7.58984 85.6778 7.96543 85.4046 7.96543C85.1315 7.96543 84.9949 7.65813 84.9949 7.04354C84.9949 4.24371 83.117 2.84379 79.3611 2.84379C74.1712 2.84379 68.7081 7.93128 62.9718 18.1063C66.7277 18.7892 69.9714 19.3013 72.7029 19.6428C75.5028 19.9842 77.8246 20.1549 79.6684 20.1549C86.6338 20.1549 90.1165 18.4136 90.1165 14.9309C90.1165 14.3846 90.0141 13.9407 89.8092 13.5992C89.6044 13.1895 89.5019 12.9163 89.5019 12.7798C89.5019 12.5749 89.5702 12.4725 89.7068 12.4725C90.1848 12.4725 90.6287 13.0871 91.0384 14.3163C91.3116 15.1357 91.4481 15.921 91.4481 16.6722C91.4481 21.0427 87.9313 23.2279 80.8976 23.2279C78.9172 23.2279 76.3222 22.9889 73.1127 22.5109C69.9031 22.0329 66.079 21.3158 61.6402 20.3598C61.0939 21.4524 60.0013 23.6718 58.3624 27.0179C56.7234 30.2958 54.5723 34.7004 51.9091 40.2318C48.9727 46.2411 46.2753 51.4311 43.8169 55.8015C41.3585 60.1037 39.1391 63.5523 37.1588 66.1472C29.7153 76.0491 21.7597 81 13.2919 81Z"/>
<path d="M66.6826 35.4174C65.3168 35.4174 64.634 34.7004 64.634 33.2663C64.634 32.5834 65.0437 31.764 65.8632 30.8079C66.7509 29.7836 67.5362 29.1007 68.2191 28.7593C70.6775 27.5984 72.1457 27.0179 72.6237 27.0179C72.8286 27.0179 72.931 27.0862 72.931 27.2228C72.931 27.4277 72.1457 28.4178 70.5751 30.1933C70.4385 30.3299 69.9263 31.3884 69.0386 33.3688C68.2874 34.7345 67.5021 35.4174 66.6826 35.4174ZM60.5367 68.2983C57.0539 68.2983 55.3126 66.557 55.3126 63.0743C55.3126 60.4793 55.9955 57.2015 57.3612 53.2407L55.5174 56.1088C54.6297 57.6112 54.0151 58.3624 53.6737 58.3624C53.5371 58.3624 53.4688 58.2599 53.4688 58.0551C53.4688 57.5087 53.6737 56.9966 54.0834 56.5186C55.7223 54.265 57.532 51.0213 59.5123 46.7875C59.7172 46.2411 59.9903 45.5583 60.3318 44.7388C60.7415 43.9193 61.2195 42.9974 61.7658 41.9731C62.1073 41.3585 62.9609 41.0512 64.3267 41.0512C65.4876 41.0512 66.068 41.3927 66.068 42.0755C66.068 42.8267 65.7266 43.851 65.0437 45.1485C64.4291 46.5143 63.8486 47.2996 63.3023 47.5045C59.7513 54.6065 57.9758 59.8306 57.9758 63.1767C57.9758 65.4302 58.727 66.557 60.2294 66.557C62.6877 66.557 65.3851 64.7815 68.3215 61.2305C71.3945 57.6795 72.8969 55.904 72.8286 55.904C72.9652 55.904 73.0334 56.0064 73.0334 56.2113C73.0334 56.2796 72.9652 56.5186 72.8286 56.9283C72.214 58.0209 71.4287 59.1477 70.4726 60.3086C69.5849 61.4012 68.5605 62.5621 67.3996 63.7913C64.395 66.796 62.1073 68.2983 60.5367 68.2983Z"/>
<path d="M91.761 71.3713C89.9173 71.3713 88.4832 70.4153 87.4589 68.5032C86.6394 66.9326 86.2297 65.1229 86.2297 63.0743C86.2297 62.0499 86.298 60.9232 86.4345 59.694C86.6394 58.3965 86.9126 56.9966 87.254 55.4942C82.9518 65.0546 78.5131 69.8348 73.9377 69.8348C71.1379 69.8348 69.738 68.0252 69.738 64.4059C69.738 58.6014 72.5378 52.592 78.1375 46.3777C83.8054 40.0269 89.4392 36.8515 95.0389 36.8515C97.7021 36.8515 99.0338 38.0124 99.0338 40.3342C99.0338 43.2023 97.1217 46.0704 93.2975 48.9385C91.3172 53.8553 90.327 58.9087 90.327 64.0986C90.327 67.991 91.1806 69.9373 92.8878 69.9373C95.2779 69.9373 99.3752 65.6351 105.18 57.0307C105.589 56.4844 105.897 56.2113 106.102 56.2113C106.306 56.2113 106.409 56.3478 106.409 56.621C106.409 56.9624 106.272 57.3039 105.999 57.6453C99.8532 66.796 95.1072 71.3713 91.761 71.3713ZM74.3475 66.6594C78.6496 66.6594 82.8152 61.8792 86.8443 52.3188C86.298 52.4554 85.7858 52.592 85.3078 52.7286C84.898 52.7968 84.5225 52.831 84.181 52.831C83.9079 52.831 83.7713 52.7286 83.7713 52.5237C83.7713 52.1822 84.2493 51.8408 85.2053 51.4994L88.3808 49.6556C88.5173 48.4947 89.2344 46.9923 90.5319 45.1485C91.8293 43.2365 93.0585 42.2804 94.2194 42.2804C94.6292 42.2804 94.834 42.5877 94.834 43.2023C94.834 43.6803 94.6633 44.4315 94.3219 45.4558C95.4145 43.9535 95.9608 42.4853 95.9608 41.0512C95.9608 39.4806 95.2438 38.6953 93.8097 38.6953C90.3953 38.6953 85.9224 42.0755 80.391 48.8361C74.8596 55.4601 72.0939 60.6159 72.0939 64.3035C72.0939 65.8741 72.8451 66.6594 74.3475 66.6594Z"/>
<path d="M107.546 70.6543C106.931 70.6543 106.624 70.3811 106.624 69.8348C106.624 69.7665 106.624 69.6982 106.624 69.63C106.692 69.5617 106.761 69.4592 106.829 69.3227V69.2202C106.829 68.8788 106.931 68.4691 107.136 67.991C108.297 65.1229 109.322 61.1963 110.209 56.2113C110.414 55.0504 110.517 53.309 110.517 50.9872C110.517 50.1677 110.38 48.9044 110.107 47.1972C109.902 45.49 109.8 44.2266 109.8 43.4072C109.8 42.9291 110.073 42.5877 110.619 42.3828L115.126 41.1536C116.15 38.8318 117.858 37.6709 120.248 37.6709C121.272 37.6709 121.614 38.0807 121.272 38.9001C122.092 38.5587 122.706 38.2855 123.116 38.0807C123.526 37.8758 123.73 37.7734 123.73 37.7734C123.867 37.7734 123.935 37.8758 123.935 38.0807C123.935 38.6953 122.843 39.4806 120.657 40.4366C119.497 43.1682 118.097 46.6167 116.458 50.7823C114.887 54.8796 113.043 59.7281 110.926 65.3278C113.043 62.9377 114.853 60.7866 116.355 58.8745C117.926 56.9624 119.223 55.3235 120.248 53.9577C120.999 52.592 122.023 50.9189 123.321 48.9385C124.618 46.8899 126.121 44.5681 127.828 41.9731C128.784 40.7439 130.218 40.1293 132.13 40.1293C134.042 40.1293 134.998 40.8805 134.998 42.3828C134.998 42.9974 134.213 45.2851 132.642 49.2458C130.73 53.9577 129.774 56.4503 129.774 56.7234C131.55 55.1528 133.223 53.4114 134.793 51.4994C136.432 49.519 137.969 47.4021 139.403 45.1485C139.676 44.6705 139.949 44.4315 140.222 44.4315C140.427 44.4315 140.529 44.6022 140.529 44.9437C140.529 45.8314 138.72 48.7678 135.1 53.7529C134.008 55.2552 132.881 56.7576 131.72 58.2599C130.559 59.7623 129.398 61.2646 128.238 62.767C128.033 63.1084 127.589 63.2791 126.906 63.2791C126.428 63.2791 126.189 63.0401 126.189 62.5621C126.189 62.2207 126.291 61.6061 126.496 60.7183C126.701 59.8306 126.974 58.6355 127.316 57.1332L128.955 50.6799C129.228 49.4507 129.433 48.2898 129.569 47.1972C129.706 46.1046 129.774 45.0802 129.774 44.1242C127.384 47.7435 124.243 51.8067 120.35 56.3137L110.209 67.8886C110.004 69.7324 109.117 70.6543 107.546 70.6543ZM152.104 69.1178C148.348 69.1178 145.412 66.6253 143.295 61.6402C141.588 57.816 140.734 53.7529 140.734 49.4507C140.734 46.924 141.007 45.0461 141.554 43.8169C141.964 43.0657 143.022 42.6901 144.729 42.6901C145.412 42.6901 145.822 42.8609 145.958 43.2023C145.822 43.2023 145.651 43.9193 145.446 45.3534C145.241 46.6509 145.139 48.0849 145.139 49.6556C145.139 53.1383 145.719 56.6893 146.88 60.3086C148.519 65.0205 150.807 67.3764 153.743 67.3764C154.221 67.3764 154.836 67.2399 155.587 66.9667C156.407 66.6253 156.987 66.4545 157.328 66.4545C157.67 66.4545 157.841 66.557 157.841 66.7618C157.841 67.3082 157.055 67.8545 155.485 68.4008C154.051 68.8788 152.924 69.1178 152.104 69.1178ZM112.156 49.2458C112.497 48.0849 112.873 46.9582 113.282 45.8656C113.692 44.7729 114.068 43.7828 114.409 42.895L111.643 43.8169C111.78 44.7047 111.882 45.5924 111.951 46.4802C112.087 47.3679 112.156 48.2898 112.156 49.2458Z"/>
<path d="M161.743 70.6543C159.079 70.6543 157.748 68.9471 157.748 65.5327C157.748 61.3671 159.318 57.099 162.46 52.7286C161.367 50.0653 160.821 47.2313 160.821 44.2266C160.821 41.2902 161.401 38.7294 162.562 36.5442C164.747 32.242 167.547 30.0909 170.962 30.0909C175.195 30.0909 177.654 33.7102 178.337 40.9488C180.044 41.0171 181.307 41.5634 182.127 42.5877C183.015 43.5437 183.458 44.9095 183.458 46.685C183.458 48.0508 183.288 49.041 182.946 49.6556C182.673 50.2019 182.4 50.475 182.127 50.475C181.854 50.475 181.717 50.3385 181.717 50.0653C181.717 49.7239 181.751 49.3141 181.819 48.8361C181.956 48.3581 182.024 47.7776 182.024 47.0947C182.024 46.1387 181.683 45.4217 181 44.9437C180.317 44.3974 179.464 44.1242 178.439 44.1242C177.62 52.4554 175.605 58.8404 172.396 63.2791H175.571C174.683 63.8254 173.898 64.0986 173.215 64.0986C173.079 64.0986 172.874 64.0644 172.6 63.9962C172.396 63.9279 172.225 63.8937 172.088 63.8937C172.225 63.962 171.03 65.0888 168.503 67.274C165.84 69.5275 163.586 70.6543 161.743 70.6543ZM163.586 51.6018C167.752 46.0021 172.122 42.5194 176.698 41.1536C175.332 35.2808 173.454 32.3444 171.064 32.3444C168.879 32.3444 166.864 34.4955 165.02 38.7977C163.86 41.6658 163.279 44.7047 163.279 47.9142C163.279 49.2117 163.382 50.4409 163.586 51.6018ZM169.118 62.767C170.757 61.2646 172.43 58.3282 174.137 53.9577C175.912 49.4507 176.8 46.1387 176.8 44.0218C175.298 44.2266 172.942 45.6265 169.732 48.2215C166.591 50.7482 164.645 52.7627 163.894 54.265C165.328 59.455 167.069 62.2889 169.118 62.767ZM162.05 67.5813C163.962 67.5813 166.181 66.1472 168.708 63.2791C166.455 63.006 164.611 60.3086 163.177 55.1869C160.923 58.9428 159.796 61.8792 159.796 63.9962C159.796 66.3863 160.548 67.5813 162.05 67.5813Z"/>
</mask>
<path d="M13.2919 81C10.219 81 7.58984 80.4537 5.40461 79.3611C2.4682 77.8587 1 75.7418 1 73.0102C1 70.0738 2.60478 67.7862 5.81434 66.1472C8.34102 64.8498 11.2433 64.201 14.5211 64.201C15.1357 64.201 15.443 64.3035 15.443 64.5083C15.443 64.7815 15.1357 64.9181 14.5211 64.9181C11.7213 64.9181 9.3312 65.4644 7.35083 66.557C4.75587 67.9227 3.45839 69.869 3.45839 72.3957C3.45839 74.5809 4.44857 76.2881 6.42894 77.5173C8.20444 78.5416 10.1848 79.0538 12.37 79.0538C18.4477 79.0538 24.0474 76.2539 29.169 70.6543C30.8762 68.8105 32.6176 66.5228 34.3931 63.7913C36.1686 61.0598 37.9782 57.8843 39.822 54.265C40.5732 52.6944 41.6317 50.475 42.9974 47.6069C44.4315 44.6705 46.1046 41.0171 48.0166 36.6466C49.6556 32.8907 51.1921 29.5787 52.6261 26.7106C54.0602 23.8425 55.3577 21.35 56.5186 19.233L49.3483 17.6965C48.6654 20.4964 47.8459 23.5694 46.8899 26.9155C45.9338 30.2616 44.7729 33.8468 43.4072 37.6709C44.1583 37.1929 44.8071 36.9539 45.3534 36.9539C45.8314 36.9539 46.0704 37.2612 46.0704 37.8758C46.0704 39.6513 44.0901 42.3146 40.1293 45.8656C38.9684 48.5971 37.6368 51.3286 36.1344 54.0602C34.7004 56.7234 33.0956 59.3525 31.3201 61.9475C26.335 69.391 22.0329 73.1127 18.4136 73.1127C17.1161 73.1127 16.4673 72.7712 16.4673 72.0883C16.4673 71.7469 16.6381 71.5762 16.9795 71.5762C17.1844 71.5762 17.4575 71.6103 17.799 71.6786C18.1404 71.7469 18.3794 71.7811 18.516 71.7811C22.067 71.7811 26.2326 68.1618 31.0128 60.9232C34.2907 56.0064 37.0563 50.7823 39.3099 45.251C38.4904 42.4511 38.0807 40.3 38.0807 38.7977C38.0807 36.5442 38.4904 35.4174 39.3099 35.4174C40.2659 35.4174 41.1195 36.4076 41.8707 38.388C42.8267 36.4076 43.851 33.6761 44.9437 30.1933C46.0363 26.7106 47.1289 22.4426 48.2215 17.3892C37.5685 15.1357 29.408 14.009 23.7401 14.009C12.1993 14.009 6.42894 18.0038 6.42894 25.9936C6.42894 31.2518 9.46778 35.9979 15.5455 40.2318C15.8186 40.4366 15.9552 40.6073 15.9552 40.7439C15.9552 40.9488 15.8186 41.0512 15.5455 41.0512C15.4772 41.0512 15.3064 40.9829 15.0333 40.8464C6.97525 36.271 2.94622 30.7738 2.94622 24.3547C2.94622 19.7793 5.13146 16.4332 9.50192 14.3163C12.8481 12.7456 17.0478 11.9603 22.1012 11.9603C28.1105 11.9603 36.9539 13.0871 48.6312 15.3406C48.8361 13.9748 49.0751 12.5408 49.3483 11.0384C49.6897 9.53606 50.0312 7.99957 50.3726 6.42893C50.5775 6.49723 50.6799 7.21426 50.6799 8.58003C50.6799 10.3555 50.3726 12.6773 49.758 15.5455L57.7478 17.0819C64.1669 6.36065 71.2006 1 78.8489 1C83.4925 1 85.8143 2.94622 85.8143 6.83867C85.8143 7.58984 85.6778 7.96543 85.4046 7.96543C85.1315 7.96543 84.9949 7.65813 84.9949 7.04354C84.9949 4.24371 83.117 2.84379 79.3611 2.84379C74.1712 2.84379 68.7081 7.93128 62.9718 18.1063C66.7277 18.7892 69.9714 19.3013 72.7029 19.6428C75.5028 19.9842 77.8246 20.1549 79.6684 20.1549C86.6338 20.1549 90.1165 18.4136 90.1165 14.9309C90.1165 14.3846 90.0141 13.9407 89.8092 13.5992C89.6044 13.1895 89.5019 12.9163 89.5019 12.7798C89.5019 12.5749 89.5702 12.4725 89.7068 12.4725C90.1848 12.4725 90.6287 13.0871 91.0384 14.3163C91.3116 15.1357 91.4481 15.921 91.4481 16.6722C91.4481 21.0427 87.9313 23.2279 80.8976 23.2279C78.9172 23.2279 76.3222 22.9889 73.1127 22.5109C69.9031 22.0329 66.079 21.3158 61.6402 20.3598C61.0939 21.4524 60.0013 23.6718 58.3624 27.0179C56.7234 30.2958 54.5723 34.7004 51.9091 40.2318C48.9727 46.2411 46.2753 51.4311 43.8169 55.8015C41.3585 60.1037 39.1391 63.5523 37.1588 66.1472C29.7153 76.0491 21.7597 81 13.2919 81Z" fill="#950000"/>
<path d="M66.6826 35.4174C65.3168 35.4174 64.634 34.7004 64.634 33.2663C64.634 32.5834 65.0437 31.764 65.8632 30.8079C66.7509 29.7836 67.5362 29.1007 68.2191 28.7593C70.6775 27.5984 72.1457 27.0179 72.6237 27.0179C72.8286 27.0179 72.931 27.0862 72.931 27.2228C72.931 27.4277 72.1457 28.4178 70.5751 30.1933C70.4385 30.3299 69.9263 31.3884 69.0386 33.3688C68.2874 34.7345 67.5021 35.4174 66.6826 35.4174ZM60.5367 68.2983C57.0539 68.2983 55.3126 66.557 55.3126 63.0743C55.3126 60.4793 55.9955 57.2015 57.3612 53.2407L55.5174 56.1088C54.6297 57.6112 54.0151 58.3624 53.6737 58.3624C53.5371 58.3624 53.4688 58.2599 53.4688 58.0551C53.4688 57.5087 53.6737 56.9966 54.0834 56.5186C55.7223 54.265 57.532 51.0213 59.5123 46.7875C59.7172 46.2411 59.9903 45.5583 60.3318 44.7388C60.7415 43.9193 61.2195 42.9974 61.7658 41.9731C62.1073 41.3585 62.9609 41.0512 64.3267 41.0512C65.4876 41.0512 66.068 41.3927 66.068 42.0755C66.068 42.8267 65.7266 43.851 65.0437 45.1485C64.4291 46.5143 63.8486 47.2996 63.3023 47.5045C59.7513 54.6065 57.9758 59.8306 57.9758 63.1767C57.9758 65.4302 58.727 66.557 60.2294 66.557C62.6877 66.557 65.3851 64.7815 68.3215 61.2305C71.3945 57.6795 72.8969 55.904 72.8286 55.904C72.9652 55.904 73.0334 56.0064 73.0334 56.2113C73.0334 56.2796 72.9652 56.5186 72.8286 56.9283C72.214 58.0209 71.4287 59.1477 70.4726 60.3086C69.5849 61.4012 68.5605 62.5621 67.3996 63.7913C64.395 66.796 62.1073 68.2983 60.5367 68.2983Z" fill="#950000"/>
<path d="M91.761 71.3713C89.9173 71.3713 88.4832 70.4153 87.4589 68.5032C86.6394 66.9326 86.2297 65.1229 86.2297 63.0743C86.2297 62.0499 86.298 60.9232 86.4345 59.694C86.6394 58.3965 86.9126 56.9966 87.254 55.4942C82.9518 65.0546 78.5131 69.8348 73.9377 69.8348C71.1379 69.8348 69.738 68.0252 69.738 64.4059C69.738 58.6014 72.5378 52.592 78.1375 46.3777C83.8054 40.0269 89.4392 36.8515 95.0389 36.8515C97.7021 36.8515 99.0338 38.0124 99.0338 40.3342C99.0338 43.2023 97.1217 46.0704 93.2975 48.9385C91.3172 53.8553 90.327 58.9087 90.327 64.0986C90.327 67.991 91.1806 69.9373 92.8878 69.9373C95.2779 69.9373 99.3752 65.6351 105.18 57.0307C105.589 56.4844 105.897 56.2113 106.102 56.2113C106.306 56.2113 106.409 56.3478 106.409 56.621C106.409 56.9624 106.272 57.3039 105.999 57.6453C99.8532 66.796 95.1072 71.3713 91.761 71.3713ZM74.3475 66.6594C78.6496 66.6594 82.8152 61.8792 86.8443 52.3188C86.298 52.4554 85.7858 52.592 85.3078 52.7286C84.898 52.7968 84.5225 52.831 84.181 52.831C83.9079 52.831 83.7713 52.7286 83.7713 52.5237C83.7713 52.1822 84.2493 51.8408 85.2053 51.4994L88.3808 49.6556C88.5173 48.4947 89.2344 46.9923 90.5319 45.1485C91.8293 43.2365 93.0585 42.2804 94.2194 42.2804C94.6292 42.2804 94.834 42.5877 94.834 43.2023C94.834 43.6803 94.6633 44.4315 94.3219 45.4558C95.4145 43.9535 95.9608 42.4853 95.9608 41.0512C95.9608 39.4806 95.2438 38.6953 93.8097 38.6953C90.3953 38.6953 85.9224 42.0755 80.391 48.8361C74.8596 55.4601 72.0939 60.6159 72.0939 64.3035C72.0939 65.8741 72.8451 66.6594 74.3475 66.6594Z" fill="#950000"/>
<path d="M107.546 70.6543C106.931 70.6543 106.624 70.3811 106.624 69.8348C106.624 69.7665 106.624 69.6982 106.624 69.63C106.692 69.5617 106.761 69.4592 106.829 69.3227V69.2202C106.829 68.8788 106.931 68.4691 107.136 67.991C108.297 65.1229 109.322 61.1963 110.209 56.2113C110.414 55.0504 110.517 53.309 110.517 50.9872C110.517 50.1677 110.38 48.9044 110.107 47.1972C109.902 45.49 109.8 44.2266 109.8 43.4072C109.8 42.9291 110.073 42.5877 110.619 42.3828L115.126 41.1536C116.15 38.8318 117.858 37.6709 120.248 37.6709C121.272 37.6709 121.614 38.0807 121.272 38.9001C122.092 38.5587 122.706 38.2855 123.116 38.0807C123.526 37.8758 123.73 37.7734 123.73 37.7734C123.867 37.7734 123.935 37.8758 123.935 38.0807C123.935 38.6953 122.843 39.4806 120.657 40.4366C119.497 43.1682 118.097 46.6167 116.458 50.7823C114.887 54.8796 113.043 59.7281 110.926 65.3278C113.043 62.9377 114.853 60.7866 116.355 58.8745C117.926 56.9624 119.223 55.3235 120.248 53.9577C120.999 52.592 122.023 50.9189 123.321 48.9385C124.618 46.8899 126.121 44.5681 127.828 41.9731C128.784 40.7439 130.218 40.1293 132.13 40.1293C134.042 40.1293 134.998 40.8805 134.998 42.3828C134.998 42.9974 134.213 45.2851 132.642 49.2458C130.73 53.9577 129.774 56.4503 129.774 56.7234C131.55 55.1528 133.223 53.4114 134.793 51.4994C136.432 49.519 137.969 47.4021 139.403 45.1485C139.676 44.6705 139.949 44.4315 140.222 44.4315C140.427 44.4315 140.529 44.6022 140.529 44.9437C140.529 45.8314 138.72 48.7678 135.1 53.7529C134.008 55.2552 132.881 56.7576 131.72 58.2599C130.559 59.7623 129.398 61.2646 128.238 62.767C128.033 63.1084 127.589 63.2791 126.906 63.2791C126.428 63.2791 126.189 63.0401 126.189 62.5621C126.189 62.2207 126.291 61.6061 126.496 60.7183C126.701 59.8306 126.974 58.6355 127.316 57.1332L128.955 50.6799C129.228 49.4507 129.433 48.2898 129.569 47.1972C129.706 46.1046 129.774 45.0802 129.774 44.1242C127.384 47.7435 124.243 51.8067 120.35 56.3137L110.209 67.8886C110.004 69.7324 109.117 70.6543 107.546 70.6543ZM152.104 69.1178C148.348 69.1178 145.412 66.6253 143.295 61.6402C141.588 57.816 140.734 53.7529 140.734 49.4507C140.734 46.924 141.007 45.0461 141.554 43.8169C141.964 43.0657 143.022 42.6901 144.729 42.6901C145.412 42.6901 145.822 42.8609 145.958 43.2023C145.822 43.2023 145.651 43.9193 145.446 45.3534C145.241 46.6509 145.139 48.0849 145.139 49.6556C145.139 53.1383 145.719 56.6893 146.88 60.3086C148.519 65.0205 150.807 67.3764 153.743 67.3764C154.221 67.3764 154.836 67.2399 155.587 66.9667C156.407 66.6253 156.987 66.4545 157.328 66.4545C157.67 66.4545 157.841 66.557 157.841 66.7618C157.841 67.3082 157.055 67.8545 155.485 68.4008C154.051 68.8788 152.924 69.1178 152.104 69.1178ZM112.156 49.2458C112.497 48.0849 112.873 46.9582 113.282 45.8656C113.692 44.7729 114.068 43.7828 114.409 42.895L111.643 43.8169C111.78 44.7047 111.882 45.5924 111.951 46.4802C112.087 47.3679 112.156 48.2898 112.156 49.2458Z" fill="#950000"/>
<path d="M161.743 70.6543C159.079 70.6543 157.748 68.9471 157.748 65.5327C157.748 61.3671 159.318 57.099 162.46 52.7286C161.367 50.0653 160.821 47.2313 160.821 44.2266C160.821 41.2902 161.401 38.7294 162.562 36.5442C164.747 32.242 167.547 30.0909 170.962 30.0909C175.195 30.0909 177.654 33.7102 178.337 40.9488C180.044 41.0171 181.307 41.5634 182.127 42.5877C183.015 43.5437 183.458 44.9095 183.458 46.685C183.458 48.0508 183.288 49.041 182.946 49.6556C182.673 50.2019 182.4 50.475 182.127 50.475C181.854 50.475 181.717 50.3385 181.717 50.0653C181.717 49.7239 181.751 49.3141 181.819 48.8361C181.956 48.3581 182.024 47.7776 182.024 47.0947C182.024 46.1387 181.683 45.4217 181 44.9437C180.317 44.3974 179.464 44.1242 178.439 44.1242C177.62 52.4554 175.605 58.8404 172.396 63.2791H175.571C174.683 63.8254 173.898 64.0986 173.215 64.0986C173.079 64.0986 172.874 64.0644 172.6 63.9962C172.396 63.9279 172.225 63.8937 172.088 63.8937C172.225 63.962 171.03 65.0888 168.503 67.274C165.84 69.5275 163.586 70.6543 161.743 70.6543ZM163.586 51.6018C167.752 46.0021 172.122 42.5194 176.698 41.1536C175.332 35.2808 173.454 32.3444 171.064 32.3444C168.879 32.3444 166.864 34.4955 165.02 38.7977C163.86 41.6658 163.279 44.7047 163.279 47.9142C163.279 49.2117 163.382 50.4409 163.586 51.6018ZM169.118 62.767C170.757 61.2646 172.43 58.3282 174.137 53.9577C175.912 49.4507 176.8 46.1387 176.8 44.0218C175.298 44.2266 172.942 45.6265 169.732 48.2215C166.591 50.7482 164.645 52.7627 163.894 54.265C165.328 59.455 167.069 62.2889 169.118 62.767ZM162.05 67.5813C163.962 67.5813 166.181 66.1472 168.708 63.2791C166.455 63.006 164.611 60.3086 163.177 55.1869C160.923 58.9428 159.796 61.8792 159.796 63.9962C159.796 66.3863 160.548 67.5813 162.05 67.5813Z" fill="#950000"/>
<path d="M13.2919 81C10.219 81 7.58984 80.4537 5.40461 79.3611C2.4682 77.8587 1 75.7418 1 73.0102C1 70.0738 2.60478 67.7862 5.81434 66.1472C8.34102 64.8498 11.2433 64.201 14.5211 64.201C15.1357 64.201 15.443 64.3035 15.443 64.5083C15.443 64.7815 15.1357 64.9181 14.5211 64.9181C11.7213 64.9181 9.3312 65.4644 7.35083 66.557C4.75587 67.9227 3.45839 69.869 3.45839 72.3957C3.45839 74.5809 4.44857 76.2881 6.42894 77.5173C8.20444 78.5416 10.1848 79.0538 12.37 79.0538C18.4477 79.0538 24.0474 76.2539 29.169 70.6543C30.8762 68.8105 32.6176 66.5228 34.3931 63.7913C36.1686 61.0598 37.9782 57.8843 39.822 54.265C40.5732 52.6944 41.6317 50.475 42.9974 47.6069C44.4315 44.6705 46.1046 41.0171 48.0166 36.6466C49.6556 32.8907 51.1921 29.5787 52.6261 26.7106C54.0602 23.8425 55.3577 21.35 56.5186 19.233L49.3483 17.6965C48.6654 20.4964 47.8459 23.5694 46.8899 26.9155C45.9338 30.2616 44.7729 33.8468 43.4072 37.6709C44.1583 37.1929 44.8071 36.9539 45.3534 36.9539C45.8314 36.9539 46.0704 37.2612 46.0704 37.8758C46.0704 39.6513 44.0901 42.3146 40.1293 45.8656C38.9684 48.5971 37.6368 51.3286 36.1344 54.0602C34.7004 56.7234 33.0956 59.3525 31.3201 61.9475C26.335 69.391 22.0329 73.1127 18.4136 73.1127C17.1161 73.1127 16.4673 72.7712 16.4673 72.0883C16.4673 71.7469 16.6381 71.5762 16.9795 71.5762C17.1844 71.5762 17.4575 71.6103 17.799 71.6786C18.1404 71.7469 18.3794 71.7811 18.516 71.7811C22.067 71.7811 26.2326 68.1618 31.0128 60.9232C34.2907 56.0064 37.0563 50.7823 39.3099 45.251C38.4904 42.4511 38.0807 40.3 38.0807 38.7977C38.0807 36.5442 38.4904 35.4174 39.3099 35.4174C40.2659 35.4174 41.1195 36.4076 41.8707 38.388C42.8267 36.4076 43.851 33.6761 44.9437 30.1933C46.0363 26.7106 47.1289 22.4426 48.2215 17.3892C37.5685 15.1357 29.408 14.009 23.7401 14.009C12.1993 14.009 6.42894 18.0038 6.42894 25.9936C6.42894 31.2518 9.46778 35.9979 15.5455 40.2318C15.8186 40.4366 15.9552 40.6073 15.9552 40.7439C15.9552 40.9488 15.8186 41.0512 15.5455 41.0512C15.4772 41.0512 15.3064 40.9829 15.0333 40.8464C6.97525 36.271 2.94622 30.7738 2.94622 24.3547C2.94622 19.7793 5.13146 16.4332 9.50192 14.3163C12.8481 12.7456 17.0478 11.9603 22.1012 11.9603C28.1105 11.9603 36.9539 13.0871 48.6312 15.3406C48.8361 13.9748 49.0751 12.5408 49.3483 11.0384C49.6897 9.53606 50.0312 7.99957 50.3726 6.42893C50.5775 6.49723 50.6799 7.21426 50.6799 8.58003C50.6799 10.3555 50.3726 12.6773 49.758 15.5455L57.7478 17.0819C64.1669 6.36065 71.2006 1 78.8489 1C83.4925 1 85.8143 2.94622 85.8143 6.83867C85.8143 7.58984 85.6778 7.96543 85.4046 7.96543C85.1315 7.96543 84.9949 7.65813 84.9949 7.04354C84.9949 4.24371 83.117 2.84379 79.3611 2.84379C74.1712 2.84379 68.7081 7.93128 62.9718 18.1063C66.7277 18.7892 69.9714 19.3013 72.7029 19.6428C75.5028 19.9842 77.8246 20.1549 79.6684 20.1549C86.6338 20.1549 90.1165 18.4136 90.1165 14.9309C90.1165 14.3846 90.0141 13.9407 89.8092 13.5992C89.6044 13.1895 89.5019 12.9163 89.5019 12.7798C89.5019 12.5749 89.5702 12.4725 89.7068 12.4725C90.1848 12.4725 90.6287 13.0871 91.0384 14.3163C91.3116 15.1357 91.4481 15.921 91.4481 16.6722C91.4481 21.0427 87.9313 23.2279 80.8976 23.2279C78.9172 23.2279 76.3222 22.9889 73.1127 22.5109C69.9031 22.0329 66.079 21.3158 61.6402 20.3598C61.0939 21.4524 60.0013 23.6718 58.3624 27.0179C56.7234 30.2958 54.5723 34.7004 51.9091 40.2318C48.9727 46.2411 46.2753 51.4311 43.8169 55.8015C41.3585 60.1037 39.1391 63.5523 37.1588 66.1472C29.7153 76.0491 21.7597 81 13.2919 81Z" stroke="#950000" stroke-width="2" mask="url(#path-1-outside-1_43_2769)"/>
<path d="M66.6826 35.4174C65.3168 35.4174 64.634 34.7004 64.634 33.2663C64.634 32.5834 65.0437 31.764 65.8632 30.8079C66.7509 29.7836 67.5362 29.1007 68.2191 28.7593C70.6775 27.5984 72.1457 27.0179 72.6237 27.0179C72.8286 27.0179 72.931 27.0862 72.931 27.2228C72.931 27.4277 72.1457 28.4178 70.5751 30.1933C70.4385 30.3299 69.9263 31.3884 69.0386 33.3688C68.2874 34.7345 67.5021 35.4174 66.6826 35.4174ZM60.5367 68.2983C57.0539 68.2983 55.3126 66.557 55.3126 63.0743C55.3126 60.4793 55.9955 57.2015 57.3612 53.2407L55.5174 56.1088C54.6297 57.6112 54.0151 58.3624 53.6737 58.3624C53.5371 58.3624 53.4688 58.2599 53.4688 58.0551C53.4688 57.5087 53.6737 56.9966 54.0834 56.5186C55.7223 54.265 57.532 51.0213 59.5123 46.7875C59.7172 46.2411 59.9903 45.5583 60.3318 44.7388C60.7415 43.9193 61.2195 42.9974 61.7658 41.9731C62.1073 41.3585 62.9609 41.0512 64.3267 41.0512C65.4876 41.0512 66.068 41.3927 66.068 42.0755C66.068 42.8267 65.7266 43.851 65.0437 45.1485C64.4291 46.5143 63.8486 47.2996 63.3023 47.5045C59.7513 54.6065 57.9758 59.8306 57.9758 63.1767C57.9758 65.4302 58.727 66.557 60.2294 66.557C62.6877 66.557 65.3851 64.7815 68.3215 61.2305C71.3945 57.6795 72.8969 55.904 72.8286 55.904C72.9652 55.904 73.0334 56.0064 73.0334 56.2113C73.0334 56.2796 72.9652 56.5186 72.8286 56.9283C72.214 58.0209 71.4287 59.1477 70.4726 60.3086C69.5849 61.4012 68.5605 62.5621 67.3996 63.7913C64.395 66.796 62.1073 68.2983 60.5367 68.2983Z" stroke="#950000" stroke-width="2" mask="url(#path-1-outside-1_43_2769)"/>
<path d="M91.761 71.3713C89.9173 71.3713 88.4832 70.4153 87.4589 68.5032C86.6394 66.9326 86.2297 65.1229 86.2297 63.0743C86.2297 62.0499 86.298 60.9232 86.4345 59.694C86.6394 58.3965 86.9126 56.9966 87.254 55.4942C82.9518 65.0546 78.5131 69.8348 73.9377 69.8348C71.1379 69.8348 69.738 68.0252 69.738 64.4059C69.738 58.6014 72.5378 52.592 78.1375 46.3777C83.8054 40.0269 89.4392 36.8515 95.0389 36.8515C97.7021 36.8515 99.0338 38.0124 99.0338 40.3342C99.0338 43.2023 97.1217 46.0704 93.2975 48.9385C91.3172 53.8553 90.327 58.9087 90.327 64.0986C90.327 67.991 91.1806 69.9373 92.8878 69.9373C95.2779 69.9373 99.3752 65.6351 105.18 57.0307C105.589 56.4844 105.897 56.2113 106.102 56.2113C106.306 56.2113 106.409 56.3478 106.409 56.621C106.409 56.9624 106.272 57.3039 105.999 57.6453C99.8532 66.796 95.1072 71.3713 91.761 71.3713ZM74.3475 66.6594C78.6496 66.6594 82.8152 61.8792 86.8443 52.3188C86.298 52.4554 85.7858 52.592 85.3078 52.7286C84.898 52.7968 84.5225 52.831 84.181 52.831C83.9079 52.831 83.7713 52.7286 83.7713 52.5237C83.7713 52.1822 84.2493 51.8408 85.2053 51.4994L88.3808 49.6556C88.5173 48.4947 89.2344 46.9923 90.5319 45.1485C91.8293 43.2365 93.0585 42.2804 94.2194 42.2804C94.6292 42.2804 94.834 42.5877 94.834 43.2023C94.834 43.6803 94.6633 44.4315 94.3219 45.4558C95.4145 43.9535 95.9608 42.4853 95.9608 41.0512C95.9608 39.4806 95.2438 38.6953 93.8097 38.6953C90.3953 38.6953 85.9224 42.0755 80.391 48.8361C74.8596 55.4601 72.0939 60.6159 72.0939 64.3035C72.0939 65.8741 72.8451 66.6594 74.3475 66.6594Z" stroke="#950000" stroke-width="2" mask="url(#path-1-outside-1_43_2769)"/>
<path d="M107.546 70.6543C106.931 70.6543 106.624 70.3811 106.624 69.8348C106.624 69.7665 106.624 69.6982 106.624 69.63C106.692 69.5617 106.761 69.4592 106.829 69.3227V69.2202C106.829 68.8788 106.931 68.4691 107.136 67.991C108.297 65.1229 109.322 61.1963 110.209 56.2113C110.414 55.0504 110.517 53.309 110.517 50.9872C110.517 50.1677 110.38 48.9044 110.107 47.1972C109.902 45.49 109.8 44.2266 109.8 43.4072C109.8 42.9291 110.073 42.5877 110.619 42.3828L115.126 41.1536C116.15 38.8318 117.858 37.6709 120.248 37.6709C121.272 37.6709 121.614 38.0807 121.272 38.9001C122.092 38.5587 122.706 38.2855 123.116 38.0807C123.526 37.8758 123.73 37.7734 123.73 37.7734C123.867 37.7734 123.935 37.8758 123.935 38.0807C123.935 38.6953 122.843 39.4806 120.657 40.4366C119.497 43.1682 118.097 46.6167 116.458 50.7823C114.887 54.8796 113.043 59.7281 110.926 65.3278C113.043 62.9377 114.853 60.7866 116.355 58.8745C117.926 56.9624 119.223 55.3235 120.248 53.9577C120.999 52.592 122.023 50.9189 123.321 48.9385C124.618 46.8899 126.121 44.5681 127.828 41.9731C128.784 40.7439 130.218 40.1293 132.13 40.1293C134.042 40.1293 134.998 40.8805 134.998 42.3828C134.998 42.9974 134.213 45.2851 132.642 49.2458C130.73 53.9577 129.774 56.4503 129.774 56.7234C131.55 55.1528 133.223 53.4114 134.793 51.4994C136.432 49.519 137.969 47.4021 139.403 45.1485C139.676 44.6705 139.949 44.4315 140.222 44.4315C140.427 44.4315 140.529 44.6022 140.529 44.9437C140.529 45.8314 138.72 48.7678 135.1 53.7529C134.008 55.2552 132.881 56.7576 131.72 58.2599C130.559 59.7623 129.398 61.2646 128.238 62.767C128.033 63.1084 127.589 63.2791 126.906 63.2791C126.428 63.2791 126.189 63.0401 126.189 62.5621C126.189 62.2207 126.291 61.6061 126.496 60.7183C126.701 59.8306 126.974 58.6355 127.316 57.1332L128.955 50.6799C129.228 49.4507 129.433 48.2898 129.569 47.1972C129.706 46.1046 129.774 45.0802 129.774 44.1242C127.384 47.7435 124.243 51.8067 120.35 56.3137L110.209 67.8886C110.004 69.7324 109.117 70.6543 107.546 70.6543ZM152.104 69.1178C148.348 69.1178 145.412 66.6253 143.295 61.6402C141.588 57.816 140.734 53.7529 140.734 49.4507C140.734 46.924 141.007 45.0461 141.554 43.8169C141.964 43.0657 143.022 42.6901 144.729 42.6901C145.412 42.6901 145.822 42.8609 145.958 43.2023C145.822 43.2023 145.651 43.9193 145.446 45.3534C145.241 46.6509 145.139 48.0849 145.139 49.6556C145.139 53.1383 145.719 56.6893 146.88 60.3086C148.519 65.0205 150.807 67.3764 153.743 67.3764C154.221 67.3764 154.836 67.2399 155.587 66.9667C156.407 66.6253 156.987 66.4545 157.328 66.4545C157.67 66.4545 157.841 66.557 157.841 66.7618C157.841 67.3082 157.055 67.8545 155.485 68.4008C154.051 68.8788 152.924 69.1178 152.104 69.1178ZM112.156 49.2458C112.497 48.0849 112.873 46.9582 113.282 45.8656C113.692 44.7729 114.068 43.7828 114.409 42.895L111.643 43.8169C111.78 44.7047 111.882 45.5924 111.951 46.4802C112.087 47.3679 112.156 48.2898 112.156 49.2458Z" stroke="#950000" stroke-width="2" mask="url(#path-1-outside-1_43_2769)"/>
<path d="M161.743 70.6543C159.079 70.6543 157.748 68.9471 157.748 65.5327C157.748 61.3671 159.318 57.099 162.46 52.7286C161.367 50.0653 160.821 47.2313 160.821 44.2266C160.821 41.2902 161.401 38.7294 162.562 36.5442C164.747 32.242 167.547 30.0909 170.962 30.0909C175.195 30.0909 177.654 33.7102 178.337 40.9488C180.044 41.0171 181.307 41.5634 182.127 42.5877C183.015 43.5437 183.458 44.9095 183.458 46.685C183.458 48.0508 183.288 49.041 182.946 49.6556C182.673 50.2019 182.4 50.475 182.127 50.475C181.854 50.475 181.717 50.3385 181.717 50.0653C181.717 49.7239 181.751 49.3141 181.819 48.8361C181.956 48.3581 182.024 47.7776 182.024 47.0947C182.024 46.1387 181.683 45.4217 181 44.9437C180.317 44.3974 179.464 44.1242 178.439 44.1242C177.62 52.4554 175.605 58.8404 172.396 63.2791H175.571C174.683 63.8254 173.898 64.0986 173.215 64.0986C173.079 64.0986 172.874 64.0644 172.6 63.9962C172.396 63.9279 172.225 63.8937 172.088 63.8937C172.225 63.962 171.03 65.0888 168.503 67.274C165.84 69.5275 163.586 70.6543 161.743 70.6543ZM163.586 51.6018C167.752 46.0021 172.122 42.5194 176.698 41.1536C175.332 35.2808 173.454 32.3444 171.064 32.3444C168.879 32.3444 166.864 34.4955 165.02 38.7977C163.86 41.6658 163.279 44.7047 163.279 47.9142C163.279 49.2117 163.382 50.4409 163.586 51.6018ZM169.118 62.767C170.757 61.2646 172.43 58.3282 174.137 53.9577C175.912 49.4507 176.8 46.1387 176.8 44.0218C175.298 44.2266 172.942 45.6265 169.732 48.2215C166.591 50.7482 164.645 52.7627 163.894 54.265C165.328 59.455 167.069 62.2889 169.118 62.767ZM162.05 67.5813C163.962 67.5813 166.181 66.1472 168.708 63.2791C166.455 63.006 164.611 60.3086 163.177 55.1869C160.923 58.9428 159.796 61.8792 159.796 63.9962C159.796 66.3863 160.548 67.5813 162.05 67.5813Z" stroke="#950000" stroke-width="2" mask="url(#path-1-outside-1_43_2769)"/>
</svg>
